<?xml version="1.0" encoding="utf-8"?>
<!-- Generator: Adobe Illustrator 20.0.0, SVG Export Plug-In . SVG Version: 6.00 Build 0)  -->
<svg version="1.1" xmlns="http://www.w3.org/2000/svg" xmlns:xlink="http://www.w3.org/1999/xlink" x="0px" y="0px"
	 viewBox="0 0 750 500" style="enable-background:new 0 0 750 500;" xml:space="preserve">
<style type="text/css">
	.st0{fill:#080808;}
</style>
<g id="BACKGROUND">
</g>
<g id="OBJECTS">
	<g>
		<path class="st0" d="M534.3,36.4c2.3,5.8,7.6,9,11.4,13.5c26.6,30.9,53.9,61.3,80.3,92.5c25.2,29.8,52.5,57.8,79.5,86
			c3.2,3.3,6.6,6.3,10.3,9.1c4.1,3.1,4.1,7,0.9,11.1c-2.2,2.8-4.9,5.2-7.2,7.8c-53.5,58.7-107,117.5-160.4,176.3
			c-2.8,3.1-5.6,5.1-9.8,5.7c-13,1.8-25.9,3.8-38.9,5.6c-1.7,0.2-3.6,0.2-5.3,0c-6.5-0.6-7.8-2.4-4.6-8.1
			c6.5-11.5,8.7-24.5,14.5-37.8c-18.2,1.9-34.9,3.6-51.6,5.5c-47.1,5.1-94.2,10.3-141.3,15.5c-54.8,6-109.7,12.1-164.5,18.1
			c-26,2.8-52,5.6-78.1,8.4c-3.2,0.3-6.3,0.7-9.4,1.6c-2.6,0.7-5.6,1.1-7.3-2.3c-1.7-3.3-1.2-6.1,1.3-8.7c1-1,2.1-1.9,3.1-2.9
			c30.7-28.9,61.5-57.9,92.3-86.8c23.5-22.1,47.1-44.1,70.7-66.2c1.6-1.5,2.9-3.2,4.5-4.6c3-2.6,2.3-5-0.3-7.1
			c-2.5-2-5.2-3.7-7.9-5.4c-46-30.7-92.4-60.8-139.4-89.9c-10.5-6.5-20.1-14.5-31.2-20.2c-6.3-3.2-6.5-6.1-1.9-11.7
			c6.1-7.4,13.1-14,20.2-20.4c14.5-13.1,29.1-26,43.2-39.6c5-4.8,10.4-5.8,16.4-4.8c51.2,8.8,102.5,17.7,153.7,26.7
			c45,7.9,89.9,15.8,134.8,23.7c23.7,4.2,47.3,8.4,71,12.6c1.7,0.3,3.4,0.5,5.5,0.9c1.9-6.9-0.4-13-1.1-19.1
			c-1.4-10.5-3.3-21-5.3-31.4c-1.6-8.1,0.3-14,7.4-19.2c13.9-10.2,27-21.5,38.2-34.7C530,36.1,532.2,36.3,534.3,36.4z M543,66.8
			c0-0.9-0.4-1.4-1.2-1.3c-0.1,0-0.2,0.7-0.1,1c0.4,1,1,1,1.6,0.1c-2.6,5.8,1.1,10.8,2.4,15.9c6.5,24.3,16.4,47.6,22.5,72
			c2.5,9.8,0,12.6-9.8,11.4c-1.4-0.2-2.8-0.3-4.2-0.5c-28.2-5.1-56.3-10.3-84.5-15.3c-29.3-5.2-58.6-10-87.8-15.1
			c-44.2-7.8-88.4-15.7-132.7-23.5c-21.9-3.9-43.8-8-65.8-11.8c-19.9-3.5-39.9-6.8-60.8-10.3c1.5,4.6,4.1,6.9,6.5,9.4
			c12.4,13.2,26.4,24.7,40.6,35.9c38,30.3,75.5,61.1,112.6,92.6c8.9,7.6,9.1,9.9,0.4,17.4c-9.4,8.2-18.9,16.1-28.5,24
			c-33.8,28.2-65.5,58.8-97.6,88.8c-7.9,7.3-16.5,14.2-23.2,23.8c2.3,0.2,3.7,0.4,5,0.3c36.6-3.3,73.2-6.7,109.9-10.1
			c47.9-4.5,95.7-9,143.6-13.4c38.7-3.6,77.5-7.2,116.2-10.8c18.7-1.7,37.3-3.6,56-5.2c9.1-0.8,10.6,1.3,9.4,10.3
			c-1.4,10.7-5.7,20.4-9.4,30.3c-2.9,7.6-7.7,14.3-9,22.5c-1.8,0.2-2.4,1.9-1.4,2.6c1.3,0.9,1.9-0.9,2.2-2.1
			c8.1-6.8,14.7-15.2,21.8-23c39.6-43.5,79-87,118.5-130.5c8.1-8.9,7.4-7.1-0.6-15.5c-17.4-18.2-34.9-36.3-51.5-55.1
			c-30.5-34.5-60.4-69.5-90.7-104.2C550.1,73.5,547.7,69,543,66.8z"/>
		<path class="st0" d="M528.4,190c-22.1-3.9-44.4-7.6-66.7-11.6c-21.2-3.8-42.4-7.9-63.6-11.7c-44.6-7.9-89.1-15.8-133.7-23.6
			c-22.3-3.9-44.7-7.4-67-11.2c-7-1.2-13.9-2.6-20.7-4.6c-3.3-0.9-7-2.8-5.7-7.5c1.3-4.6,5-4.3,8.7-3.5c30.7,7.1,62,10.7,93,16.4
			c42.8,7.8,85.7,15,128.5,22.5c27.2,4.7,54.3,9.6,81.5,14.2c19.1,3.2,38.1,8.2,57.7,7.6c3.8-0.1,6.4,1.6,6.8,5.3
			c0.5,4.2-2.2,7-5.9,7.6C537.2,190.5,532.9,190,528.4,190z"/>
		<path class="st0" d="M269.6,339.7c-2.8-0.3-4.5-1.3-5.4-3.5c-0.9-2.2-0.5-4.4,1.1-5.9c2.1-1.9,4.4-3.5,6.8-5
			c59.2-37.8,118.4-75.5,177.7-113.3c6.9-4.4,10.6-4.6,13-0.8c2.4,3.9,0.6,7.3-6.1,11.6c-59.6,37.7-119.3,75.5-179,113.2
			C275,337.7,272.6,340,269.6,339.7z"/>
		<path class="st0" d="M359.7,326.6c-1.9-0.2-3.8-0.8-4.9-3c-1.1-2.2-1-4.3,0.6-5.9c1.7-1.7,3.8-3.2,5.9-4.5
			c46.3-28.8,92.5-57.7,137.7-88.2c1.4-1,2.9-2.1,4.5-2.6c2.5-0.7,5-0.2,6.7,2.1c1.7,2.3,1.4,4.7,0.2,7c-1.2,2.3-3.5,3.4-5.6,4.7
			c-45.3,29.6-90.9,58.8-137.1,87.2C365.3,324.9,363,326.6,359.7,326.6z"/>
		<path class="st0" d="M455,317.1c-4.7-0.4-6.9-5.2-4.7-8.9c1.3-2.3,3.6-3.3,5.7-4.6c32-20.3,64.1-40.6,96.1-60.9
			c1.2-0.8,2.4-1.5,3.6-2.2c3.3-2,6.3-1.5,8.4,1.5c2.5,3.6,1.3,6.8-2.1,9.1c-4.1,2.8-8.4,5.3-12.6,7.9c-28.5,17.9-57,35.9-85.5,53.8
			C461.1,314.7,458.2,316.9,455,317.1z"/>
		<path class="st0" d="M328.4,255c-4.7-0.6-6.8-5.1-4.5-8.9c1.5-2.5,4.1-3.8,6.5-5.3c23.6-14.9,48.4-27.8,71.6-43.4
			c1.4-1,3.1-1.8,4.8-2.2c2.7-0.6,4.8,0.7,6.2,3c1.5,2.4,1.5,4.8-0.5,6.8c-1.5,1.5-3.3,2.6-5.1,3.7c-24.2,14.6-48.4,29.2-72.6,43.8
			C332.7,253.9,330.5,255.1,328.4,255z"/>
		<path class="st0" d="M615.4,307.8c0.4-2.4,1.9-4.4,3.7-6.1c19.1-19,38.3-37.9,57.5-56.8c1.2-1.2,2.8-2.2,4.3-3.1
			c2.1-1.2,4.2-0.5,5.9,1c2.1,1.8,3,4.3,1.6,6.7c-1.6,2.7-3.8,5.1-6.1,7.3c-17.3,17.3-34.7,34.5-52.1,51.7c-1.8,1.7-3.5,3.6-5.6,4.8
			C620.3,315.6,615.2,312.5,615.4,307.8z"/>
		<path class="st0" d="M672.9,227.6c0,3.8-3.1,6.2-6.5,5.5c-2.2-0.5-3.7-2-5.1-3.6c-18.5-20.9-39.2-39.8-58.2-60.3
			c-1.2-1.3-2.6-2.5-3.5-4c-1.7-2.6-1.9-5.5,0.5-7.7c2.4-2.2,5.2-1.8,7.8,0c1.2,0.8,2.2,1.7,3.2,2.7c18.9,19.6,37.7,39.2,56.6,58.9
			C670.1,221.6,672.7,224.2,672.9,227.6z"/>
		<path class="st0" d="M597.2,262.4c-0.4,3-2.1,4.8-4.3,6.1c-15.6,9.7-31.2,19.4-46.8,28.9c-3.3,2-6.9,2.8-9.3-1.1
			c-2.3-3.8-0.1-6.8,3.1-8.9c15.8-10,31.7-19.9,47.5-29.8c2.1-1.3,4.5-2,6.9-0.3C596.3,258.6,597.3,260.4,597.2,262.4z"/>
		<path class="st0" d="M608.9,284.5c-0.3,2-1.3,3.8-3.1,5c-5.3,3.5-10.6,6.9-16,10.2c-3.1,1.9-6.2,1.9-8.3-1.3c-2.1-3.2-0.7-6,2-8.3
			c5.1-4.4,10.7-8.1,16.6-11.1C604.7,276.7,609.1,279.6,608.9,284.5z"/>
		<path class="st0" d="M595.8,137.3c-0.1,5.7-5.8,8.9-9.8,5.9c-4.9-3.6-8.5-8.4-10.3-14.2c-0.9-3,0.1-5.5,2.9-7.1
			c2.5-1.5,4.8-1,6.7,1C589.5,127.4,593.9,131.9,595.8,137.3z"/>
		<path class="st0" d="M611.3,325.8c-0.1,3.7-8.5,13.9-12.2,14.9c-2.3,0.6-4.1-0.3-5.6-1.9c-1.5-1.7-2.2-3.9-1.1-5.8
			c2.7-4.9,6-9.6,11-12.3C607.2,318.6,611.4,321.5,611.3,325.8z"/>
		<path class="st0" d="M570.6,192.1c-6.3-0.3-10-3-10.1-6.8c-0.1-3.9,2.9-6.2,8.1-6c6.3,0.1,10.3,2.9,9.7,7.1
			C577.6,191.4,573.8,192.1,570.6,192.1z"/>
	</g>
</g>
</svg>
